<?xml version="1.0" encoding="UTF-8"?>
<svg fill="none" viewBox="0 0 26 28" xmlns="http://www.w3.org/2000/svg">
<path d="m0 14.305 0.0013205-0.1403 0.0027231-0.1403 0.0041327-0.1404 0.0055353-0.1403 0.0069516-0.1404 0.0083541-0.1403 0.0097706-0.1403 0.011173-0.1403 0.01259-0.1402 0.013999-0.1402 0.015408-0.14 0.016811-0.14 0.018227-0.1399 0.019637-0.1397 0.02104-0.1396 0.022449-0.1393 0.023858-0.1393 0.025254-0.139 0.026664-0.1389 0.028066-0.1387 0.029469-0.1385 0.030858-0.1381 0.032267-0.1379 0.03365-0.1377 0.035052-0.1374 0.036434-0.1371 0.03783-0.1368 0.039212-0.1364 0.040594-0.1361 0.04197-0.1357 0.043352-0.1354 0.044726-0.13503 0.046096-0.13461 0.047457-0.13419 0.048825-0.13377 0.05018-0.13335 0.051541-0.13286 0.052893-0.13244 0.05423-0.13188 0.05558-0.13146 0.05692-0.13097 0.05826-0.13041 0.05958-0.12985 0.06091-0.12936 0.06222-0.1288 0.06355-0.12817 0.06485-0.12761 0.06615-0.12705 0.06745-0.12635 0.06874-0.12579 0.07004-0.12516 0.07131-0.12446 0.07259-0.12383 0.07385-0.12313 0.07512-0.12243 0.07637-0.12173 0.07763-0.12096 0.07886-0.12033 0.0801-0.11949 0.08134-0.11879 0.08255-0.11802 0.08376-0.11718 0.08497-0.11648 0.08617-0.11557 0.08737-0.1148 0.08854-0.114 0.08972-0.11312 0.09089-0.11227 0.09205-0.1114 0.0932-0.11052 0.09435-0.10963 0.09547-0.10871 0.09661-0.10781 0.09772-0.10688 0.09883-0.10593 0.09993-0.10499 0.10101-0.10403 0.1021-0.10305 0.10317-0.10207 0.10424-0.10107 0.10528-0.10006 0.10633-0.09905 0.10736-0.09801 0.10838-0.09698 0.1094-0.09594 0.1104-0.09486 0.11139-0.09379 0.11237-0.09272 0.11335-0.09162 0.11431-0.09053 0.11522-0.0894 0.11625-0.08829 0.11714-0.08715 0.11802-0.08601 0.11892-0.08486 0.11987-0.0837 0.1207-0.08254 0.12158-0.08134 0.12248-0.08017 0.12336-0.07896 0.12411-0.07775 0.12501-0.07655 0.12576-0.07531 0.12658-0.07408 0.1274-0.07284 0.12815-0.07159 0.12891-0.07034 0.12965-0.06906 0.13041-0.0678 0.13117-0.0665 0.13184-0.06522 0.1326-0.06393 0.13322-0.06261 0.13397-0.0613 0.13458-0.05998 0.13527-0.05866 0.13589-0.05731 0.13649-0.05598 0.13712-0.05464 0.13773-0.053266 0.13828-0.051919 0.1389-0.05054 0.13944-0.049175 0.13999-0.047796 0.14045-0.046403 0.141-0.045017 0.1416-0.043617 0.142-0.04221 0.1425-0.040803 0.143-0.039396 0.1434-0.037975 0.1438-0.036547 0.1443-0.035112 0.1447-0.033691 0.145-0.032242 0.1454-0.030807 0.1458-0.029358 0.1462-0.027902 0.1465-0.026453 0.1468-0.02499 0.1471-0.023527 0.1474-0.022064 0.1476-0.020587 0.1479-0.019117 0.1482-0.01764 0.1485-0.01617 0.1486-0.014672 0.1488-0.013195 0.149-0.011711 0.1492-0.010213 0.8021-0.046865 0.0458 3.9541 0.0262-3.1e-4 0.1108-1.6e-4 0.1108 9.5e-4 0.1107 0.00207 0.1109 0.00318 0.1109 0.0043 0.1109 0.0054 0.1109 0.00653 0.1109 0.00766 0.1109 0.00875 0.1109 0.00989 0.1107 0.011 0.1108 0.01212 0.1106 0.01324 0.1107 0.01436 0.1105 0.01548 0.1104 0.01659 0.1103 0.01771 0.1102 0.01883 0.1101 0.01995 0.1099 0.02106 0.1098 0.02218 0.1095 0.02329 0.1095 0.0244 0.1092 0.02552 0.109 0.02662 0.1088 0.02773 0.1086 0.02885 0.1083 0.02995 0.1081 0.03105 0.1079 0.03215 0.1076 0.03325 0.1073 0.03435 0.107 0.03545 0.1067 0.03654 0.1064 0.03762 0.1061 0.03872 0.1057 0.03979 0.1054 0.04089 0.105 0.04196 0.1047 0.04304 0.1043 0.04412 0.1039 0.04517 0.1035 0.04625 0.1031 0.04731 0.1026 0.04837 0.1022 0.04942 0.1019 0.05048 0.1013 0.05153 0.1008 0.05257 0.1004 0.0536 0.0999 0.05465 0.0994 0.05568 0.0989 0.05669 0.0984 0.05773 0.0978 0.05873 0.0973 0.05977 0.0968 0.06076 0.0962 0.06174 0.0955 0.06279 0.0951 0.0637 0.0944 0.06475 0.0939 0.06573 0.0932 0.06664 0.0926 0.06769 0.092 0.0686 0.0912 0.06958 0.0908 0.07056 0.0899 0.07147 0.0894 0.07245 0.0886 0.07329 0.088 0.07427 0.0872 0.07525 0.0866 0.07609 0.0859 0.077 0.0851 0.07791 0.0843 0.07882 0.0836 0.07973 0.0828 0.08057 0.0821 0.08141 0.0813 0.08232 0.0806 0.08316 0.0797 0.08407 0.0789 0.08484 0.0781 0.08568 0.0773 0.08652 0.0764 0.08736 0.0756 0.08813 0.0748 0.08897 0.0739 0.08974 0.0731 0.09051 0.0722 0.09135 0.0713 0.09205 0.0704 0.09282 0.0695 0.09359 0.0686 0.09436 0.0677 0.09506 0.0668 0.09583 0.0658 0.09653 0.0649 0.09716 0.064 0.09793 0.063 0.09863 0.0621 0.09933 0.061 0.09996 0.0601 0.10059 0.0592 0.10129 0.0581 0.10192 0.0571 0.10255 0.0562 0.10318 0.0552 0.10378 0.0541 0.1044 0.0531 0.105 0.052 0.1056 0.0511 0.1061 0.05 0.1067 0.049 0.1073 0.0479 0.1078 0.0469 0.1083 0.0457 0.1089 0.0447 0.1094 0.0437 0.1098 0.0425 0.1104 0.0415 0.1108 0.0404 0.1114 0.0392 0.1117 0.0382 0.1123 0.0371 0.1126 0.036 0.1131 0.0348 0.1135 0.0337 0.1139 0.0326 0.1143 0.0315 0.1147 0.0303 0.1151 0.0292 0.1154 0.028 0.1157 0.0269 0.1161 0.0258 0.1164 0.0245 0.1168 0.0235 0.117 0.0222 0.1173 0.0211 0.1176 0.02 0.1179 0.0187 0.1181 0.0176 0.1184 0.0164 0.1186 0.0152 0.1188 0.0141 0.1191 0.0128 0.1192 0.0117 0.1194 0.0104 0.1196 0.0093 0.1198 0.0081 0.1199 0.0068 0.12 0.0057 0.1201 0.0045 0.1204 0.0033 0.1203 0.0021 0.1205 8e-4 0.1205-3e-4 0.1206-0.0016 0.1207-0.0028 0.1207-4e-3 0.1207-0.0052 0.1208-0.0064 0.1207-0.0076 0.1208-0.0088 0.1207-0.0101 0.1207-0.0113 0.1207-0.0124 0.1206-0.0138 0.1205-0.0149 0.1204-0.0161 0.1204-0.0174 0.1202-0.0185 0.1202-0.0198 0.1199-0.021 0.1199-0.0222 0.1197-0.0234 0.1195-0.0246 0.1194-0.0259 0.1191-0.027 0.119-0.0282 0.1187-0.0295 0.1185-0.0306 0.1183-0.0318 0.118-0.0331 0.1177-0.0342 0.1175-0.0354 0.1173-0.0367 0.1168-0.0378 0.1166-0.039 0.1162-0.0402 0.1159-0.0413 0.1156-0.0426 0.1151-0.0437 0.1148-0.0449 0.1145-0.046 0.114-0.0472 0.1136-0.0484 0.1133-0.0496 0.1127-0.0507 0.1123-0.0518 0.1119-0.053 0.1114-0.0542 0.1109-0.0552 0.1104-0.0564 0.11-0.0575 0.1093-0.0587 0.1089-0.0597 0.1083-0.0609 0.1078-0.062 0.1073-0.0631 0.1066-0.0642 0.1061-0.0653 0.1054-0.0664 0.1049-0.0674 0.1042-0.0686 0.1036-0.0695 0.103-0.0707 0.1023-0.0717 0.1017-0.0728 0.101-0.0738 0.1003-0.0749 0.0996-0.0759 0.0988-0.0769 0.0982-0.0779 0.0975-0.079 0.0966-0.08 0.096-0.0809 0.0952-0.082 0.0944-0.0829 0.0937-0.0839 0.0929-0.0848 0.092-0.0859 0.0913-0.0867 0.0904-0.0878 0.0896-0.0887 0.0888-0.0896 0.0879-0.0905 0.0871-0.0914 0.0861-0.0924 0.0854-0.0932 0.0843-0.0941 0.0835-0.095 0.0827-0.0959 0.0817-0.0967 0.0807-0.0976 0.0799-0.0985 0.0788-0.0993 0.078-0.1001 0.0769-0.1009 0.076-0.1016 0.075-0.1026 0.074-0.1033 0.0731-0.1041 0.072-0.1048 0.071-0.1057 0.07-0.1063 0.0691-0.1071 0.0679-0.1078 0.0669-0.1086 0.0658-0.1092 0.0648-0.1099 0.0637-0.1107 0.0626-0.1113 0.0616-0.112 0.0604-0.1126 0.0593-0.1133 0.0584-0.1139 0.0571-0.1146 0.056-0.1151 0.0549-0.1158 0.0538-0.1163 0.0526-0.1169 0.0515-0.1175 0.0503-0.1181 0.0492-0.1185 0.048-0.1191 0.0469-0.1197 0.0457-0.1202 0.0444-0.1207 0.0433-0.1211 0.0421-0.1215 0.041-0.1222 0.0397-0.1225 0.0385-0.123 0.0373-0.1233 0.036-0.1239 0.0349-0.1242 0.0336-0.1246 0.0324-0.125 0.0311-0.1253 0.03-0.1258 0.0286-0.126 0.0275-0.1264 0.0262-0.1267 0.0249-0.127 0.0236-0.1272 0.0224-0.1276 0.0211-0.1279 0.0199-0.1281 0.0185-0.1283 0.0173-0.1286 0.016-0.1288 0.0147-0.129 0.0135-0.1292 0.0122-0.1293 0.0108-0.1295 0.0096-0.1296 0.0083-0.1299 7e-3 -0.1299 0.0056-0.13 0.0044-0.1302 0.0031-0.1303 0.0017-0.1303 5e-4 -0.1303-8e-4 -0.1304-0.0022-0.1305-0.0034-0.1305-0.0049-0.1305-0.0061-0.1305-0.0073-0.1304-0.0088-0.1305-0.01-0.1303-0.0113-0.1303-0.0127-0.1303-0.0139-0.1301-0.0153-0.1301-0.0166-0.13-0.0179-0.1298-0.0192-0.1297-0.0205-0.1296-0.0219-0.1293-0.0231-0.1293-0.0245-0.129-0.0257-0.1288-0.0271-0.1286-0.0284-0.1284-0.0297-0.1281-0.0309-0.1279-0.0323-0.12756-0.0336-0.12733-0.0348-0.12699-0.0362-0.12671-0.0374-0.12645-0.0387-0.12603-0.0401-0.12569-0.0412-0.12535-0.0426-0.125-0.0439-0.1246-0.0451-0.12418-0.0464-0.12377-0.0477-0.12337-0.0489-0.12288-0.0502-0.12247-0.0514-0.122-0.0527-0.12151-0.0539-0.12104-0.0552-0.12056-0.0564-0.12001-0.0577-0.11946-0.0589-0.11892-0.0601-0.11844-0.0613-0.11782-0.0625-0.1172-0.0638-0.11673-0.0649-0.11604-0.0661-0.11543-0.0674-0.11481-0.0685-0.11419-0.0697-0.11351-0.0709-0.1129-0.0721-0.11221-0.0731-0.11146-0.0744-0.11084-0.0755-0.11009-0.0767-0.10933-0.0778-0.10866-0.0789-0.10789-0.08-0.10713-0.0812-0.10637-0.0823-0.10558-0.0834-0.10479-0.0844-0.104-0.0856-0.10317-0.0866-0.10235-0.0877-0.10152-0.0888-0.10067-0.0898-0.0998-0.0909-0.09894-0.0919-0.09805-0.0929-0.09717-0.094-0.09627-0.0949-0.09535-0.0961-0.09443-0.0969-0.0935-0.0979-0.09255-0.099-0.0916-0.0999-0.09064-0.1009-0.08966-0.1018-0.08868-0.1028-0.08769-0.1037-0.08668-0.1046-0.08567-0.1055-0.08465-0.1065-0.08361-0.1073-0.08257-0.1082-0.08153-0.1091-0.08046-0.1099-0.0794-0.1109-0.07831-0.1116-0.07724-0.1125-0.07613-0.1133-0.07503-0.114-0.07391-0.115-0.0728-0.1156-0.07167-0.1165-0.07053-0.1173-0.06937-0.1179-0.06823-0.1188-0.06706-0.1194-0.0659-0.1202-0.06472-0.1209-0.06353-0.1217-0.06234-0.1223-0.06114-0.1229-0.05993-0.1236-0.05872-0.1242-0.05749-0.125-0.05627-0.1255-0.05503-0.1262-0.05379-0.1267-0.05254-0.1274-0.051286-0.1279-0.05003-0.1285-0.048757-0.1291-0.047477-0.1296-0.046205-0.1301-0.044918-0.1306-0.043632-0.1311-0.042332-0.1317-0.041026-0.1321-0.039725-0.1326-0.038405-0.133-0.037091-0.1335-0.03577-0.1339-0.034443-0.1342-0.033109-0.1347-0.031775-0.1351-0.030427-0.1355-0.029086-0.1358-0.027738-0.1362-0.026383-0.1365-0.025028-0.1368-0.023667-0.1371-0.022298-0.1374-0.020937-0.1377-0.019562-0.138-0.018186-0.1382-0.016804-0.1385-0.015429-0.1386-0.014047-0.1389-0.012658-0.139-0.011269-0.1393-0.00988-0.1395-0.0084842-0.1396-0.0070884-0.1397-0.0056927-0.1398-0.0042968-0.14-0.0028942-0.14-0.0014848-0.1402-8.8905e-5 -0.1402zm13.259-10.268-0.0312-2.6951-0.0296 0.00293-0.136 0.01481-0.1357 0.01616-0.1356 0.01753-0.1351 0.01882-0.1349 0.02021-0.1348 0.02155-0.1344 0.02288-0.1342 0.02424-0.1336 0.0255-0.1338 0.02693-0.1328 0.02814-0.133 0.02956-0.1323 0.03081-0.1322 0.03219-0.1316 0.03342-0.1312 0.03476-0.1309 0.03605-0.1305 0.03736-0.1298 0.03862-0.1297 0.03994-0.129 0.04118-0.1286 0.04249-0.1279 0.04366-0.1278 0.04505-0.12704 0.04625-0.12644 0.04747-0.1261 0.04877-0.12541 0.04996-0.12474 0.05116-0.12439 0.05248-0.12377 0.05367-0.12316 0.0549-0.12247 0.05605-0.12186 0.05726-0.12117 0.05842-0.12077 0.05971-0.11987 0.06081-0.11926 0.06198-0.11857 0.06316-0.11789 0.06432-0.11707 0.06542-0.11659 0.06663-0.11583 0.06779-0.11482 0.06875-0.11446 0.0701-0.11338 0.07103-0.11262 0.07214-0.11207 0.07331-0.11119 0.07439-0.11036 0.07548-0.10934 0.07636-0.10892 0.07772-0.10783 0.07854-0.10701 0.07963-0.10626 0.08073-0.1053 0.08168-0.10435 0.08266-0.10372 0.08383-0.10256 0.08462-0.10182 0.08574-0.10085 0.08666-0.09996 0.08768-0.09894 0.08852-0.0982 0.08963-0.09707 0.09043-0.09625 0.09148-0.09513 0.09225-0.09427 0.09324-0.09321 0.09409-0.09227 0.09502-0.09137 0.09599-0.09017 0.09666-0.08916 0.09749-0.08836 0.09863-0.08715 0.09926-0.08607 0.09996-0.08519 0.10101-0.08395 0.10164-0.08303 0.10255-0.0819 0.10325-0.08084 0.10409-0.07977 0.10479-0.07861 0.10549-0.07757 0.10626-0.07651 0.1071-0.07528 0.10759-0.07427 0.1085-0.07309 0.10906-0.07195 0.10976-0.07088 0.11046-0.06968 0.11109-0.06854 0.11165-0.06739 0.11235-0.06618 0.11291-0.0651 0.11361-0.06392 0.11424-0.06267 0.11466-0.06154 0.11529-0.06037 0.11592-0.05914 0.11641-0.05798 0.11697-0.05674 0.11739-0.05555 0.11795-0.05433 0.11844-0.05314 0.119-0.05188 0.11935-0.05071 0.11991-0.04947 0.12033-0.0482 0.12068-0.047 0.12117-0.04577 0.12159-0.0445 0.12199-0.04328 0.1223-0.042 0.1227-0.04078 0.1231-0.03952 0.1234-0.03826 0.1237-0.03699 0.124-0.03575 0.1245-0.03447 0.1246-0.0332 0.1249-0.03195 0.1252-0.03067 0.1255-0.02939 0.1257-0.02812 0.1259-0.02685 0.1261-0.02557 0.1264-0.02429 0.1265-0.02302 0.1267-0.02173 0.1268-0.02045 0.127-0.01916 0.1272-0.01789 0.1272-0.0166 0.1274-0.01532 0.1275-0.01403 0.1275-0.01275 0.1277-0.01146 0.1277-0.01018 0.1277-0.00889 0.1278-0.00761 0.1278-0.00633 0.1278-0.00504 0.1278-0.00377 0.1277-0.00247 0.1278-0.00121 0.1277 8e-5 0.1276 0.00136 0.1276 0.00263 0.1275 0.00391 0.1274 0.00518 0.1273 0.00646 0.1272 0.00772 0.127 0.00899 0.1269 0.01025 0.1267 0.01152 0.1265 0.01278 0.1264 0.01404 0.1262 0.01529 0.126 0.01654 0.1257 0.0178 0.1255 0.01905 0.1253 0.02028 0.125 0.02153 0.1247 0.02277 0.1245 0.02399 0.1241 0.02523 0.1239 0.02645 0.1235 0.02768 0.1232 0.02889 0.1228 0.0301 0.1225 0.03133 0.1222 0.03251 0.1216 0.03373 0.1214 0.03493 0.121 0.03611 0.1205 0.0373 0.1201 0.03847 0.1196 0.03966 0.1193 0.04083 0.1187 0.042 0.1183 0.04315 0.1177 0.04433 0.1173 0.04545 0.1168 0.0466 0.1163 0.04775 0.1157 0.04888 0.1151 0.05 0.1147 0.05113 0.1141 0.05224 0.1135 0.05334 0.1129 0.05445 0.1122 0.05554 0.1118 0.05663 0.1111 0.0577 0.1104 0.05879 0.1098 0.05985 0.1092 0.06091 0.1085 0.06196 0.1078 0.06302 0.1071 0.06402 0.1065 0.06509 0.1058 0.06609 0.105 0.06712 0.1044 0.06813 0.1036 0.06911 0.1028 0.07011 0.1021 0.07111 0.1014 0.07206 0.1006 0.07305 0.0998 0.07398 0.099 0.07497 0.0982 0.07586 0.0973 0.07682 0.0967 0.07777 0.0958 0.07864 0.0949 0.07957 0.0941 0.08046 0.0932 0.08137 0.0924 0.08223 0.0915 0.08308 0.0907 0.08397 0.0897 0.08481 0.0889 0.08567 0.088 0.08649 0.087 0.08733 0.0862 0.08811 0.0852 0.08893 0.0843 0.08975 0.0834 0.09051 0.0824 0.09124 0.0814 0.09208 0.0805 0.09285 0.0795 0.09346 0.0785 0.09436 0.0777 0.09496 0.0765 0.09573 0.0756 0.0964 0.0746 0.09716 0.0736 0.09777 0.0725 0.09846 0.0715 0.09907 0.0705 0.09983 0.0695 0.10037 0.0684 0.10113 0.0674 0.10161 0.0664 0.10229 0.0652 0.1029 0.0643 0.10338 0.0631 0.10407 0.0621 0.10455 0.061 0.10516 0.0599 0.10565 0.0588 0.10625 0.0578 0.10667 0.0566 0.10722 0.0556 0.10776 0.0544 0.10824 0.0533 0.10866 0.0522 0.10913 0.0511 0.10954 0.0499 0.11009 0.0489 0.11043 0.0477 0.11091 0.0466 0.11125 0.0454 0.11167 0.0442 0.11207 0.0432 0.11235 0.042 0.11276 0.0408 0.11316 0.0397 0.11345 0.0386 0.11378 0.0374 0.11399 0.0362 0.11447 0.035 0.11463 0.0339 0.1149 0.0327 0.1152 0.0316 0.1155 0.0304 0.1157 0.0292 0.1158 0.028 0.1162 0.0268 0.1163 0.0257 0.1165 0.0245 0.1167 0.0233 0.1168 0.0221 0.117 0.0209 0.1172 0.0198 0.1173 0.0185 0.1174 0.0174 0.1175 0.0161 0.1176 0.0151 0.1176 0.0138 0.1178 0.0126 0.1178 0.0115 0.1179 0.0102 0.1179 0.0091 0.1179 0.0078 0.1179 0.0067 0.1179 0.0055 0.1179 0.0043 0.1179 0.0032 0.1179 0.0019 0.1178 7e-4 0.1177-4e-4 0.1177-0.0016 0.1175-0.0027 0.1175-4e-3 0.1174-0.0051 0.1173-0.0063 0.1171-0.0075 0.117-0.0086 0.1168-0.0098 0.1167-0.011 0.1164-0.0122 0.1164-0.0133 0.116-0.0144 0.1159-0.0156 0.1156-0.0168 0.1155-0.0179 0.1151-0.0191 0.115-0.0202 0.1146-0.0214 0.1144-0.0224 0.114-0.0236 0.1138-0.0248 0.1135-0.0258 0.1131-0.027 0.1128-0.0282 0.1124-0.0292 0.1121-0.0303 0.1116-0.0315 0.1114-0.0325 0.1109-0.0337 0.1106-0.0347 0.1101-0.0358 0.1097-0.037 0.1093-0.0379 0.1087-0.039 0.1085-0.0402 0.1079-0.0412 0.1074-0.0423 0.1069-0.0432 0.1064-0.0443 0.1059-0.0455 0.1055-0.0464 0.1049-0.0474 0.1042-0.0485 0.1039-0.0495 0.1033-0.0505 0.1026-0.0515 0.1021-0.0525 0.1015-0.0535 0.1009-0.0545 0.1004-0.0555 0.0996-0.0564 0.0991-0.0574 0.0984-0.0583 0.0979-0.0594 0.097-0.0602 0.0966-0.0612 0.0958-0.0621 0.0951-0.0631 0.0944-0.064 0.0939-0.0649 0.0929-0.0657 0.0923-0.0667 0.0916-0.0675 0.0908-0.0684 0.0902-0.0694 0.0893-0.0701 0.0888-0.0711 0.0877-0.0718 0.0871-0.0727 0.0864-0.0735 0.0855-0.0745 0.0847-0.0751 0.0839-0.076 0.0831-0.0767 0.0823-0.0776 0.0815-0.0783 0.0805-0.079 0.0798-0.08 0.079-0.0806 0.0781-0.0813 0.0772-0.0821 0.0763-0.0828 0.0754-0.0834 0.0747-0.0845 0.0736-0.0848 0.0729-0.0857 0.0719-0.0862 0.071-0.087 0.07-0.0876 0.0691-0.0883 0.0683-0.0889 0.0673-0.0895 0.0664-0.0902 0.0654-0.0907 0.0645-0.0915 0.0636-0.092 0.0624-0.0924 0.0617-0.0932 0.0605-0.0936 0.0597-0.0943 0.0588-0.0948 0.0576-0.0952 0.0566-0.0958 0.0558-0.0965 0.0546-0.0967 0.0537-0.0973 0.0527-0.0979 0.0516-0.0981 0.0507-0.0989 0.0497-0.0992 0.0485-0.0994 0.0476-0.1001 0.0466-0.1006 0.0455-0.1008 0.0445-0.1012 0.0435-0.1016 0.0423-0.1019 0.0414-0.1025 0.0403-0.1028 0.0392-0.1028 0.0382-0.1036 0.0371-0.1036 0.0361-0.1041 0.035-0.1043 0.034-0.1047 0.0327-0.1046 0.0319-0.1054 0.0307-0.1053 0.0296-0.1056 0.0286-0.1058 0.0275-0.1062 0.0264-0.1062 0.0253-0.1065 0.0243-0.1068 0.0232-0.1068 0.0221-0.1071 0.0209-0.107 0.0199-0.1075 0.0188-0.1073 0.0177-0.1076 0.0167-0.1078 0.0155-0.1077 0.0145-0.1079 0.0133-0.1078 0.0124-0.1083 0.0111-0.1079 0.0101-0.1082 9e-3 -0.108 0.0079-0.1084 0.0069-0.1079 0.0057-0.1083 0.0047-0.1084 0.0035-0.1081 0.0026-0.1078 0.0013-0.1083 4e-4 -0.1081-8e-4 -0.1079-0.0018-0.1079-3e-3 -0.1079-4e-3 -0.1074-0.0051-0.1079-0.0061-0.1074-0.0073-0.1074-0.0083-0.107-0.0093-0.1072-0.0104-0.1068-0.0115-0.1068-0.0126-0.1065-0.0136-0.1064-0.0147-0.106-0.0158-0.1061-0.0167-0.1057-0.0178-0.1053-0.0189-0.1053-0.02-0.105-0.0209-0.1046-0.0221-0.1046-0.0229-0.1039-0.0241-0.104-0.025-0.1034-0.0262-0.1034-0.0271-0.1027-0.0281-0.1026-0.0292-0.1023-0.0301-0.1017-0.0311-0.1014-0.0322-0.1013-0.0331-0.1005-0.0342-0.1004-0.035-0.0998-0.0362-0.0997-0.037-0.0989-0.0381-0.0987-0.039-0.0982-0.0399-0.0976-0.0408-0.0972-0.042-0.097-0.0427-0.0961-0.0438-0.096-0.0446-0.0952-0.0456-0.0948-0.0466-0.0944-0.0473-0.0937-0.0484-0.0932-0.0493-0.0928-0.05-0.0919-0.0511-0.0917-0.0519-0.0909-0.0528-0.0906-0.0536-0.0896-0.0546-0.0893-0.0553-0.0886-0.0563-0.08813-0.0571-0.08736-0.0578-0.08659-0.0588-0.08624-0.0596-0.08547-0.0604-0.08484-0.0612-0.08407-0.062-0.08358-0.0628-0.08274-0.0636-0.08218-0.0644-0.08141-0.0651-0.08071-0.066-0.08008-0.0667-0.07931-0.0674-0.07861-0.068-0.07784-0.0689-0.07714-0.0698-0.07651-0.0702-0.07546-0.0713-0.07504-0.0716-0.07399-0.0725-0.07343-0.073-0.07252-0.0741-0.07196-0.0743-0.07084-0.0752-0.07028-0.0759-0.06944-0.0763-0.06853-0.077-0.06776-0.078-0.06713-0.0783-0.06615-0.0789-0.06531-0.0796-0.06447-0.0802-0.0637-0.0806-0.06265-0.0815-0.06216-0.0817-0.06097-0.0825-0.0602-0.083-0.05943-0.0834-0.05845-0.0843-0.05775-0.0843-0.05656-0.0853-0.05593-0.0855-0.05495-0.0862-0.05411-0.0866-0.0532-0.087-0.05222-0.0874-0.05124-0.0882-0.05061-0.0882-0.04942-0.0889-0.04865-0.0893-0.04767-0.0896-0.04669-0.0902-0.04585-0.0905-0.04494-0.0909-0.04389-0.0913-0.04305-0.0916-0.042-0.092-0.04116-0.0953-0.04144-0.0896-0.03787-0.0933-0.03836-0.0931-0.03717-0.0939-0.03647-0.0939-0.03528-0.0943-0.03444-0.0944-0.03339-0.0949-0.03255-0.095-0.03143-0.0954-0.03052-0.0956-0.02954-0.0956-0.02849-0.0961-0.02761-0.0964-0.02665-0.0963-0.02557-0.0964-0.0246-0.0971-0.0237-0.0968-0.0226-0.0972-0.0217-0.0972-0.02065-0.0976-0.01971-0.0974-0.01868-0.0977-0.01771-0.0977-0.01668-0.0981-0.01575-0.0978-0.01471-0.0981-0.01373-0.0982-0.01275-0.0981-0.01174-0.0982-0.01074-0.0983-0.00976-0.0983-0.00876-0.0984-0.00778-0.0985-0.00679-0.0981-0.00578-0.0983-0.0048-0.0986-0.00381-0.098-0.00282-0.0983-0.00183-0.0982-8.4e-4 -0.0983 1.4e-4 -0.0197 2.3e-4 0.031 2.6755 0.0558-2.8e-4 0.0717 4.2e-4 0.0718 0.00112 0.0719 0.00189 0.0719 0.00259 0.0719 0.00336 0.0719 0.00406 0.072 0.00476 0.0719 0.00553 0.072 0.00623 0.072 7e-3 0.0719 0.0077 0.072 0.00847 0.0719 0.00917 0.0718 0.00987 0.0719 0.01071 0.0718 0.01134 0.0717 0.01211 0.0717 0.01288 0.0715 0.01358 0.0715 0.01435 0.0715 0.01505 0.0713 0.01575 0.0713 0.01652 0.071 0.01729 0.0711 0.01799 0.0708 0.01869 0.0707 0.01946 0.0706 0.02016 0.0705 0.02093 0.0704 0.02163 0.0701 0.02233 0.0699 0.0231 0.0698 0.0238 0.0697 0.02457 0.0693 0.02527 0.0693 0.02597 0.0689 0.02667 0.0689 0.02744 0.0685 0.02814 0.0684 0.02884 0.0681 0.02961 0.0678 0.03024 0.0676 0.03101 0.0674 0.03164 0.067 0.03241 0.0669 0.03311 0.0665 0.03381 0.0662 0.03451 0.066 0.03521 0.0656 0.03584 0.0653 0.03661 0.065 0.03724 0.0647 0.03794 0.0644 0.03864 0.064 0.03934 0.0636 0.03997 0.0633 0.04067 0.063 0.04137 0.0626 0.042 0.0622 0.04263 0.0618 0.04333 0.0615 0.04403 0.061 0.04459 0.0606 0.04529 0.0602 0.04599 0.0599 0.04655 0.0593 0.04725 0.059 0.04788 0.0585 0.04844 0.0581 0.04914 0.0576 0.04977 0.0572 0.05033 0.0567 0.05096 0.0563 0.05159 0.0557 0.05222 0.0552 0.05278 0.0548 0.05346 0.0543 0.0539 0.0538 0.0546 0.0533 0.0552 0.0527 0.0558 0.0523 0.0562 0.0517 0.057 0.0511 0.0574 0.0507 0.0581 0.0501 0.0585 0.0495 0.0591 0.049 0.0597 0.0484 0.0602 0.0479 0.0607 0.0472 0.0613 0.0467 0.0618 0.0461 0.0623 0.0455 0.0628 0.0449 0.0633 0.0443 0.0639 0.0437 0.0643 0.0431 0.0648 0.0424 0.0653 0.0418 0.0658 0.0412 0.0663 0.0406 0.0667 0.0399 0.0671 0.0393 0.0676 0.0386 0.0681 0.038 0.0685 0.0373 0.0689 0.0366 0.0694 0.036 0.0698 0.0353 0.0702 0.0345 0.0706 0.034 0.0711 0.0332 0.0714 0.0325 0.0717 0.0318 0.0723 0.0312 0.0725 0.0304 0.0729 0.0297 0.0733 0.029 0.0737 0.0283 0.074 0.0275 0.0742 0.0268 0.0747 0.0261 0.075 0.0253 0.0753 0.0247 0.0756 0.0238 0.0759 0.0231 0.0762 0.0224 0.0765 0.0216 0.0768 0.0209 0.0771 0.02 0.0773 0.0194 0.0776 0.0185 0.0778 0.0178 0.0781 0.0171 0.0783 0.0162 0.0786 0.0154 0.0787 0.0147 0.079 0.0139 0.0792 0.0131 0.0794 0.0123 0.0795 0.0115 0.0798 0.0108 0.0799 0.0099 0.08 0.0091 0.0803 0.0083 0.0805 0.0075 0.0805 0.0068 0.0807 0.0059 0.0808 0.0051 0.0809 0.0043 0.081 0.0035 0.0811 0.0026 0.0813 0.0019 0.0812 1e-3 0.0814 2e-4 0.0815-6e-4 0.0815-0.0014 0.0816-0.0023 0.0816-0.0031 0.0817-0.0039 0.0816-0.0047 0.0817-0.0055 0.0817-0.0064 0.0817-0.0073 0.0817-8e-3 0.0817-0.0089 0.0816-0.0096 0.0817-0.0105 0.0816-0.0114 0.0815-0.0122 0.0815-0.013 0.0814-0.0138 0.0814-0.0147 0.0812-0.0155 0.0812-0.0163 0.0811-0.0172 0.081-0.0179 0.0808-0.0188 0.0807-0.0197 0.0806-0.0204 0.0805-0.0213 0.0803-0.0221 0.0801-0.0229 0.08-0.0238 0.0798-0.0245 0.0796-0.0255 0.0795-0.0262 0.0792-0.027 0.079-0.0278 0.0788-0.0287 0.0785-0.0295 0.0784-0.0302 0.0781-0.0311 0.0778-0.0318 0.0777-0.0328 0.0772-0.0334 0.0771-0.0343 0.0768-0.0351 0.0765-0.0358 0.0761-0.0367 0.0759-0.0375 0.0755-0.0383 0.0753-0.039 0.0748-0.0398 0.0745-0.0406 0.0742-0.0413 0.0739-0.0421 0.0734-0.0429 0.0732-0.0437 0.0726-0.0444 0.0724-0.0452 0.0719-0.0459 0.0716-0.0468 0.071-0.0474 0.0707-0.0481 0.0703-0.049 0.0698-0.0496 0.0693-0.0504 0.069-0.0511 0.0685-0.0519 0.0679-0.0525 0.0675-0.0533 0.0671-0.054 0.0665-0.0547 0.066-0.0554 0.0656-0.0561 0.065-0.0568 0.0645-0.0575 0.0639-0.0581 0.0635-0.0588 0.0629-0.0595 0.0623-0.0602 0.0618-0.0608 0.0612-0.0615 0.0607-0.0622 0.06-0.0627 0.0595-0.0635 0.0589-0.0641 0.0582-0.0646 0.0577-0.0654 0.0571-0.0659 0.0565-0.0665 0.0558-0.0671 0.0552-0.0679 0.0545-0.0683 0.0539-0.0689 0.0533-0.0695 0.0525-0.0702 0.052-0.0706 0.0513-0.0712 0.0505-0.0718 0.0499-0.0724 0.0493-0.0728 0.0485-0.0734 0.0478-0.0739 0.0471-0.0745 0.0463-0.075 0.0457-0.0755 0.045-0.0759 0.0441-0.0765 0.0435-0.077 0.0428-0.0775 0.042-0.0779 0.0412-0.0784 0.0405-0.0788 0.0397-0.0793 0.039-0.0798 0.0381-0.0802 0.0374-0.0806 0.0366-0.081 0.0358-0.0815 0.035-0.0818 0.0343-0.0823 0.0334-0.0826 0.0326-0.083 0.0319-0.0834 0.031-0.0838 0.0302-0.0841 0.0293-0.0845 0.0286-0.0848 0.0276-0.0851 0.0269-0.0855 0.026-0.0858 0.0252-0.0861 0.0243-0.0864 0.0235-0.0867 0.0226-0.0869 0.0218-0.0873 0.0209-0.0875 0.02-0.0878 0.0192-0.088 0.0183-0.0883 0.0174-0.0884 0.0166-0.0888 0.0157-0.0889 0.0147-0.0891 0.0139-0.0894 0.013-0.0895 0.0121-0.0897 0.0113-0.0899 0.0103-0.09 0.0094-0.0902 0.0086-0.0903 0.0076-0.0905 0.0067-0.0906 0.0058-0.0907 0.0049-0.0908 4e-3 -0.0909 0.0031-0.091 0.0022-0.0911 0.0012-0.0912 4e-4 -0.0912-6e-4 -0.0912-0.0015-0.0913-0.0024-0.0914-0.0034-0.0913-0.0042-0.0914-0.0052-0.0914-0.0061-0.0914-7e-3 -0.0913-8e-3 -0.0914-0.0089-0.0913-0.0098-0.0913-0.0107-0.0912-0.0116-0.0912-0.0126-0.0911-0.0135-0.091-0.0144-0.0909-0.0154-0.0909-0.0163-0.0907-0.0171-0.0906-0.0182-0.0904-0.0191-0.0904-0.0199-0.0902-0.0209-0.09-0.0218-0.0899-0.0228-0.0897-0.0236-0.0896-0.0246-0.0894-0.0255-0.089-0.0264-0.089-0.0273-0.0887-0.0282-0.0885-0.0292-0.0882-0.03-0.088-0.0309-0.0878-0.0319-0.0874-0.0327-0.0872-0.0337-0.08694-0.0346-0.08662-0.0354-0.08634-0.0364-0.08601-0.0373-0.08566-0.038-0.08532-0.0391-0.08505-0.0399-0.08464-0.0407-0.08429-0.0417-0.08396-0.0425-0.08361-0.0434-0.08313-0.0443-0.08279-0.0451-0.08238-0.046-0.08197-0.0469-0.08155-0.0477-0.08115-0.0485-0.08067-0.0494-0.08026-0.0503-0.07978-0.051-0.0793-0.0519-0.07882-0.0528-0.07834-0.0536-0.07786-0.0544-0.07739-0.0551-0.07683-0.056-0.07636-0.0569-0.07581-0.0576-0.07533-0.0584-0.07472-0.0593-0.07417-0.0599-0.07362-0.0609-0.07307-0.0615-0.07253-0.0624-0.07191-0.063-0.07129-0.0639-0.07075-0.0647-0.07013-0.0653-0.06945-0.0661-0.0689-0.0669-0.06828-0.0676-0.0676-0.0683-0.06692-0.069-0.0663-0.0698-0.06568-0.0704-0.065-0.0712-0.06425-0.0719-0.06363-0.0725-0.06295-0.0733-0.0622-0.0739-0.06157-0.0745-0.06076-0.0753-0.06014-0.0759-0.05933-0.0765-0.05863-0.0772-0.05789-0.0779-0.05713-0.0785-0.05645-0.079-0.05562-0.0797-0.05481-0.0803-0.05412-0.0809-0.0533-0.0815-0.0525-0.0821-0.05172-0.0826-0.05093-0.0833-0.05011-0.0837-0.04931-0.0844-0.04848-0.0848-0.04766-0.0855-0.04683-0.0859-0.046-0.0865-0.04515-0.087-0.04431-0.0875-0.04345-0.0879-0.04259-0.0885-0.04173-0.089-0.04087-0.0894-0.03998-0.0899-0.03911-0.0903-0.03822-0.0908-0.03733-0.0913-0.03644-0.0916-0.03553-0.0921-0.03464-0.0925-0.03372-0.0929-0.03282-0.0933-0.03189-0.0937-0.03097-0.094-0.03004-0.0944-0.02911-0.0948-0.02818-0.0951-0.02724-0.0954-0.02629-0.0958-0.02535-0.0961-0.02439-0.0965-0.02344-0.0966-0.02249-0.0971-0.02152-0.0973-0.02056-0.0975-0.01959-0.0978-0.01862-0.0981-0.01764-0.0984-0.01667-0.0985-0.01568-0.0988-0.01471-0.099-0.01372-0.0992-0.01272-0.0994-0.01174-0.0996-0.01074-0.0997-0.00975-0.0999-0.00875-0.1001-0.00775-0.1002-0.00674-0.1004-0.00575-0.1005-0.00473-0.1006-0.00373-0.1006-0.00272-0.1008-0.00171-0.1009-7e-4 -0.101 3.2e-4 -0.101 0.00133-0.1011 0.00236-0.1011 0.00335-0.1011 0.00439-0.1012 0.00541-0.1012 0.00641-0.1012 0.00745-0.1012 0.00845-0.1012 0.00949-0.1011 0.01051-0.1011 0.01152-0.101 0.01255-0.101 0.01357-0.101 0.01458-0.1008 0.01562-0.1008 0.01662-0.1006 0.01766-0.1005 0.01867-0.1005 0.01969-0.1003 0.0207-0.1001 0.02173-0.1 0.02275-0.0999 0.02375-0.0996 0.02477-0.0995 0.02579-0.0993 0.02679-0.0991 0.02781-0.0988 0.02882-0.0987 0.02982-0.0984 0.03083-0.0982 0.03183-0.0978 0.03282-0.0977 0.03384-0.0974 0.03483-0.0971 0.03581-0.0968 0.03681-0.0964 0.03781-0.0962 0.03878-0.0958 0.03978-0.0955 0.04075-0.0952 0.04174-0.0948 0.0427-0.0944 0.04368-0.0941 0.04464-0.09367 0.04562-0.09324 0.04657-0.09289 0.04754-0.0924 0.04848-0.09205 0.04944-0.09156 0.05038-0.09114 0.05133-0.09072 0.05226-0.09016 0.05321-0.08974 0.05413-0.08925 0.05506-0.08876 0.05597-0.08827 0.05693-0.08771 0.05774-0.08722 0.05878-0.08666 0.05959-0.08617 0.06049-0.08561 0.06144-0.08498 0.06226-0.08449 0.06322-0.08386 0.06405-0.0833 0.06493-0.08267 0.06575-0.08204 0.06664-0.08148 0.06753-0.08085 0.06836-0.08022 0.06917-0.07952 0.07006-0.07889 0.07082-0.07826 0.0717-0.07756 0.07253-0.07693 0.07328-0.07616 0.0741-0.07553 0.07492-0.07483 0.07574-0.07406 0.0765-0.07343 0.07724-0.07259 0.07807-0.07196 0.07882-0.07112 0.07951-0.07042 0.08032-0.06965 0.08108-0.06888 0.08177-0.06811 0.08251-0.06734 0.08327-0.0665 0.08395-0.06573 0.08464-0.06489 0.08539-0.06412 0.08601-0.06328 0.08668-0.06244 0.08745-0.0616 0.08805-0.06076 0.08868-0.05985 0.08942-0.05908 0.08998-0.05817 0.09066-0.0573 0.09127-0.05643 0.09189-0.05554 0.09244-0.05464 0.09312-0.05375 0.09367-0.05284 0.09421-0.05192 0.09483-0.051 0.09538-0.05008 0.09593-0.04914 0.09647-0.04821 0.09702-0.04727 0.09757-0.04631 0.09807-0.04536 0.0986-0.0444 0.099-0.04343 0.0996-0.04245 0.1-0.04149 0.1005-0.04049 0.101-0.03951 0.1014-0.03851 0.1018-0.03751 0.1023-0.03652 0.1027-0.0355 0.1031-0.03449 0.1035-0.03347 0.1039-0.03245 0.1043-0.03142 0.1047-0.03039 0.1049-0.02936 0.1054-0.02831 0.1057-0.02727 0.1061-0.02623 0.1063-0.02516 0.1067-0.02412 0.1069-0.02306 0.1072-0.022 0.1076-0.02092 0.1077-0.01986 0.1081-0.01879 0.1083-0.0177 0.1085-0.01664 0.1087-0.01554 0.109-0.01447 0.0406-0.00499zm0.046 3.9684-0.0314-2.705-0.0892 0.01277-0.096 0.01472-0.0961 0.0157-0.0955 0.0166-0.0955 0.01761-0.0951 0.01852-0.0949 0.01946-0.0946 0.02038-0.0944 0.02134-0.0941 0.02229-0.0939 0.02321-0.0934 0.02412-0.0934 0.02509-0.0897 0.02505-0.0956 0.02779-0.0923 0.02779-0.0919 0.0287-0.0914 0.02954-0.0912 0.03052-0.0909 0.03143-0.0904 0.03227-0.09 0.03311-0.0896 0.03409-0.0893 0.03486-0.0888 0.03584-0.0882 0.03661-0.0882 0.03759-0.0875 0.03836-0.0871 0.0392-0.0865 0.04004-0.0863 0.04095-0.0858 0.04179-0.0851 0.04249-0.0849 0.04347-0.084 0.04417-0.0839 0.04515-0.08303 0.04571-0.08293 0.04683-0.0821 0.04732-0.08156 0.04823-0.08115 0.04907-0.08053 0.04977-0.08012 0.05068-0.0793 0.05124-0.07896 0.05215-0.0782 0.05285-0.07766 0.05355-0.07711 0.05439-0.07663 0.05516-0.07575 0.05565-0.07533 0.05663-0.07471 0.05726-0.07403 0.05796-0.07335 0.05859-0.07287 0.05943-0.07205 0.05999-0.07143 0.06069-0.07088 0.06153-0.07 0.06195-0.06951 0.06279-0.06884 0.06342-0.06807 0.06398-0.06733 0.06461-0.06685 0.06538-0.06589 0.0658-0.06527 0.0665-0.06466 0.0672-0.06384 0.06769-0.06315 0.06839-0.0624 0.06888-0.06165 0.06944-0.06096 0.07007-0.06028 0.0707-0.05925 0.07105-0.05871 0.07175-0.05795 0.07231-0.05713 0.07273-0.05631 0.07322-0.0557 0.07392-0.0548 0.07427-0.05405 0.07483-0.05324 0.07532-0.05247 0.07581-0.05159 0.07616-0.05084 0.07672-0.05009 0.07721-0.04926 0.07763-0.04837 0.07798-0.04755 0.07847-0.0468 0.07903-0.04598 0.07924-0.04509 0.07973-0.04434 0.0801-0.04338 0.0804-0.04262 0.0809-0.04188 0.0814-0.04085 0.0814-0.04009 0.0821-0.03921 0.0823-0.03838 0.0825-0.03749 0.0831-0.03668 0.0832-0.03578 0.0836-0.03497 0.0838-0.034 0.0842-0.03319 0.0844-0.03236 0.0848-0.03147 0.0849-0.03052 0.0852-0.02976 0.0856-0.02874 0.0856-0.02798 0.0859-0.02703 0.0862-0.0262 0.0864-0.02525 0.0865-0.02443 0.0867-0.02347 0.0869-0.02264 0.0872-0.02173 0.0872-0.02083 0.0874-0.01994 0.0876-0.01905 0.0876-0.01817 0.0879-0.01725 0.0879-0.01637 0.088-0.01548 0.0882-0.01457 0.0882-0.01369 0.0883-0.01277 0.0883-0.0119 0.0885-0.01099 0.0884-0.0101 0.0886-0.0092 0.0885-0.00831 0.0887-0.00741 0.0886-0.00651 0.0885-0.00562 0.0887-0.00474 0.0887-0.00384 0.0885-0.00294 0.0886-0.00206 0.0884-0.00116 0.0885-2.8e-4 0.0885 6.1e-4 0.0883 0.00149 0.0883 0.00239 0.0882 0.00325 0.0881 0.00415 0.088 0.00502 0.0879 0.0059 0.0877 0.00678 0.0878 0.00765 0.0875 0.00852 0.0873 0.0094 0.0872 0.01026 0.0871 0.01113 0.087 0.01198 0.0866 0.01286 0.0866 0.01371 0.0863 0.01456 0.0861 0.01542 0.086 0.01627 0.0856 0.01712 0.0855 0.01795 0.0852 0.01881 0.0851 0.01962 0.0846 0.02049 0.0845 0.0213 0.0842 0.02215 0.0839 0.02292 0.0836 0.02381 0.0834 0.02456 0.083 0.02545 0.0827 0.02621 0.0825 0.02702 0.082 0.02785 0.0817 0.0286 0.0814 0.02942 0.0811 0.03024 0.0807 0.031 0.0803 0.03175 0.0799 0.03257 0.0796 0.03332 0.0792 0.03414 0.0788 0.03482 0.0783 0.03565 0.078 0.0364 0.0775 0.03709 0.0772 0.0379 0.0766 0.03859 0.0763 0.03934 0.0758 0.0401 0.0753 0.04078 0.0749 0.04153 0.0744 0.04221 0.074 0.04297 0.0734 0.04366 0.073 0.04433 0.0725 0.04502 0.0719 0.04578 0.0716 0.04632 0.0708 0.04714 0.0705 0.04769 0.0698 0.04844 0.0694 0.04906 0.0688 0.04974 0.0683 0.05036 0.0677 0.05104 0.0672 0.05159 0.0665 0.05227 0.066 0.05289 0.0655 0.05351 0.0649 0.05412 0.0642 0.05474 0.0638 0.05528 0.063 0.0559 0.0625 0.05645 0.0618 0.05706 0.0612 0.05761 0.0606 0.05823 0.06 0.0587 0.0594 0.05933 0.0587 0.05986 0.0581 0.06028 0.0574 0.06097 0.0569 0.06137 0.056 0.06192 0.0555 0.06247 0.0548 0.06295 0.0541 0.06342 0.0535 0.06391 0.0527 0.06438 0.0521 0.06487 0.0513 0.06534 0.0508 0.06582 0.05 0.06616 0.0492 0.06664 0.0486 0.06712 0.0479 0.06754 0.0472 0.06801 0.0465 0.06835 0.0457 0.06876 0.045 0.06918 0.0443 0.06951 0.0435 0.06993 0.0429 0.07034 0.042 0.07061 0.0414 0.07109 0.0405 0.07129 0.0399 0.07177 0.0391 0.07205 0.0384 0.07232 0.0375 0.07273 0.0369 0.07308 0.036 0.07328 0.0354 0.07357 0.0345 0.0739 0.0338 0.0741 0.033 0.0745 0.0322 0.0747 0.0315 0.075 0.0306 0.0751 0.0299 0.0755 0.0291 0.0757 0.0284 0.0758 0.0276 0.0761 0.0267 0.0764 0.026 0.0765 0.0252 0.0767 0.0244 0.0769 0.0236 0.077 0.0228 0.0772 0.0221 0.0774 0.0212 0.0775 0.0205 0.0777 0.0196 0.0778 0.0188 0.0779 0.0181 0.0781 0.0173 0.0781 0.0164 0.0782 0.0156 0.0784 0.0149 0.0784 0.014 0.0785 0.0133 0.0785 0.0124 0.0787 0.0117 0.0786 0.0109 0.0787 0.0101 0.0788 0.0092 0.0787 0.0085 0.0789 0.0076 0.0788 0.0068 0.0788 0.0061 0.0788 0.0053 0.0788 0.0044 0.0787 0.0037 0.0788 0.0029 0.0787 0.0021 0.0786 0.0012 0.0787 5e-4 0.0785-3e-4 0.0785-0.0011 0.0784-0.0018 0.0783-0.0027 0.0782-0.0034 0.0781-0.0042 0.078-5e-3 0.0779-0.0058 0.0778-0.0066 0.0776-0.0074 0.0775-0.0081 0.0774-0.0089 0.0771-0.0096 0.0771-0.0105 0.0768-0.0111 0.0767-0.012 0.0765-0.0127 0.0762-0.0134 0.0762-0.0143 0.0759-0.015 0.0756-0.0157 0.0756-0.0165 0.0751-0.0172 0.075-0.0179 0.0747-0.0188 0.0745-0.0194 0.0743-0.0202 0.0739-0.0209 0.0737-0.0216 0.0734-0.0223 0.0731-0.0231 0.0728-0.0238 0.0726-0.0245 0.0722-0.0252 0.0719-0.0259 0.0716-0.0266 0.0712-0.0273 0.0709-0.028 0.0705-0.0287 0.0703-0.0294 0.0698-0.03 0.0695-0.0307 0.0692-0.0314 0.0687-0.0321 0.0684-0.0327 0.068-0.0334 0.0675-0.0339 0.0673-0.0348 0.0667-0.0353 0.0664-0.0361 0.0658-0.0365 0.0656-0.0372 0.0651-0.0379 0.0646-0.0385 0.0643-0.0391 0.0637-0.0397 0.0633-0.0404 0.0629-0.0409 0.0623-0.0415 0.0619-0.0421 0.0615-0.0428 0.0609-0.0432 0.0603-0.0438 0.0601-0.0445 0.0594-0.0449 0.059-0.0455 0.0585-0.0462 0.0577-0.0465 0.0576-0.0473 0.0569-0.0477 0.0562-0.0482 0.0559-0.0489 0.0553-0.0492 0.0546-0.0497 0.0544-0.0505 0.0535-0.0507 0.0531-0.0513 0.0525-0.0518 0.0519-0.0522 0.0513-0.0528 0.0509-0.0532 0.0502-0.0537 0.0495-0.0541 0.0491-0.0546 0.0485-0.055 0.0478-0.0554 0.0473-0.056 0.0466-0.0562 0.046-0.0567 0.0455-0.0573 0.0447-0.0574 0.0442-0.058 0.0436-0.0583 0.043-0.0588 0.0423-0.0591 0.0416-0.0594 0.0411-0.06 0.0404-0.0601 0.0397-0.0605 0.0392-0.061 0.0383-0.0611 0.0379-0.0616 0.0372-0.062 0.0365-0.0621 0.0358-0.0625 0.0353-0.063 0.0344-0.0629 0.034-0.0636 0.0332-0.0636 0.0324-0.0639 0.0319-0.0644 0.0311-0.0643 0.0306-0.0649 0.0297-0.0648 0.0293-0.0654 0.0283-0.0653 0.0278-0.0659 0.0271-0.0658 0.0264-0.0661 0.0257-0.0663 0.025-0.0666 0.0243-0.0666 0.0237-0.067 0.0229-0.067 0.0222-0.0672 0.0216-0.0674 0.0208-0.0677 0.0202-0.0677 0.0194-0.0677 0.0188-0.0681 0.018-0.068 0.0174-0.0682 0.0166-0.0684 0.0159-0.0683 0.0153-0.0687 0.0145-0.0686 0.0139-0.0686 0.013-0.0687 0.0125-0.0688 0.0117-0.0691 0.011-0.0688 0.0103-0.069 0.0096-0.0691 0.0089-0.069 0.0082-0.0691 0.0076-0.0692 0.0067-0.0689 0.0062-0.0693 0.0054-0.0691 0.0046-0.069 0.0041-0.0691 0.0033-0.0691 0.0026-0.0689 0.0019-0.0692 0.0011-0.0687 6e-4 -0.069-2e-4 -0.0688-8e-4 -0.0688-0.0016-0.0686-0.0023-0.0686-0.0029-0.0686-0.0036-0.0682-0.0043-0.0685-5e-3 -0.0682-0.0056-0.0679-0.0064-0.0681-0.0071-0.0677-0.0077-0.0679-0.0083-0.0674-0.0091-0.0674-0.0097-0.0674-0.0104-0.0671-0.011-0.0668-0.0117-0.0667-0.0124-0.0665-0.0131-0.0666-0.0136-0.0661-0.0143-0.0658-0.015-0.0658-0.0157-0.0657-0.0162-0.0651-0.017-0.0653-0.0175-0.0648-0.0182-0.0646-0.0188-0.0643-0.0194-0.0642-0.0202-0.0639-0.0206-0.0635-0.0213-0.0633-0.022-0.0632-0.0225-0.0626-0.0232-0.0625-0.0237-0.0621-0.0244-0.062-0.0249-0.0616-0.0256-0.0612-0.0262-0.061-0.0266-0.0605-0.0273-0.0602-0.028-0.0601-0.0285-0.0597-0.0289-0.0592-0.0297-0.059-0.0301-0.0584-0.0308-0.0581-0.0313-0.058-0.0317-0.0574-0.0325-0.0571-0.0329-0.0566-0.0335-0.0565-0.0339-0.0557-0.0346-0.0557-0.035-0.055-0.0355-0.0547-0.0361-0.0542-0.0367-0.054-0.0371-0.0534-0.0375-0.0529-0.0381-0.0527-0.0386-0.0521-0.0391-0.0518-0.0394-0.0511-0.0401-0.0509-0.0405-0.0503-0.041-0.05-0.0414-0.0494-0.0418-0.0489-0.0424-0.0486-0.0427-0.0479-0.0432-0.0476-0.0436-0.0469-0.0442-0.0467-0.0444-0.046-0.045-0.0457-0.0453-0.045-0.0456-0.0446-0.0461-0.0441-0.0466-0.0436-0.047-0.0429-0.0472-0.0425-0.0479-0.0422-0.0478-0.0413-0.0485-0.0411-0.0488-0.0404-0.0491-0.0398-0.0496-0.0395-0.0498-0.0387-0.05-0.0382-0.0506-0.0378-0.051-0.0373-0.051-0.0365-0.0516-0.0362-0.0516-0.0353-0.0521-0.035-0.0524-0.0345-0.0527-0.0338-0.0529-0.0332-0.0533-0.0328-0.0535-0.03203-0.0539-0.03164-0.0538-0.03087-0.0544-0.03038-0.0546-0.02989-0.0548-0.02926-0.0549-0.02856-0.0553-0.02814-0.0555-0.02751-0.0557-0.02688-0.0557-0.02625-0.0564-0.02583-0.0561-0.02506-0.0565-0.0245-0.0568-0.02401-0.0569-0.02331-0.0569-0.02268-0.0572-0.02212-0.0575-0.02163-0.0575-0.02086-0.0577-0.02037-0.0579-0.01974-0.0578-0.01911-0.0581-0.01848-0.0581-0.01792-0.0585-0.01736-0.0584-0.01666-0.0585-0.0161-0.0586-0.01547-0.0588-0.01491-0.0589-0.01428-0.0589-0.01365-0.0588-0.01302-0.0591-0.01246-0.0593-0.0119-0.0589-0.01113-0.0593-0.01064-0.0592-0.01001-0.0595-0.00945-0.0591-0.00875-0.0596-0.00826-0.0592-0.00749-0.0593-7e-3 -0.0594-0.00637-0.0594-0.00574-0.0594-0.00518-0.0592-0.00455-0.0595-0.00392-0.0593-0.00336-0.0591-0.00273-0.0595-0.00217-0.0591-0.00154-0.0591-9.1e-4 -0.059-3.5e-4 -0.0404 1.4e-4 0.0306 2.6428 0.0183 1e-4 0.0339 5e-4 0.034 8e-4 0.0341 0.0011 0.034 0.0017 0.0342 0.0019 0.0341 0.0022 0.0342 0.0027 0.0343 3e-3 0.0342 0.0033 0.0343 0.0037 0.0343 0.0041 0.0343 0.0045 0.0343 0.0048 0.0344 0.0052 0.0343 0.0056 0.0344 0.0059 0.0342 0.0063 0.0344 0.0068 0.0343 7e-3 0.0342 0.0074 0.0343 0.0078 0.0343 0.0082 0.0341 0.0085 0.0343 0.0089 0.0341 0.0093 0.0341 0.0097 0.034 0.01 0.034 0.0104 0.034 0.0108 0.0339 0.0112 0.0338 0.0116 0.0338 0.0119 0.0337 0.0122 0.0336 0.0127 0.0335 0.013 0.0335 0.0134 0.0334 0.0138 0.0332 0.0141 0.0332 0.0145 0.0331 0.0149 0.033 0.0153 0.0329 0.0156 0.0328 0.016 0.0326 0.0163 0.0326 0.0167 0.0323 0.0172 0.0323 0.0174 0.0322 0.0179 0.032 0.0182 0.0319 0.0185 0.0317 0.0189 0.0316 0.0193 0.0315 0.0196 0.0312 0.0201 0.0312 0.0203 0.0309 0.0207 0.0308 0.0211 0.0306 0.0214 0.0305 0.0218 0.0302 0.0221 0.0301 0.0225 0.0299 0.0228 0.0297 0.0232 0.0295 0.0235 0.0294 0.0239 0.029 0.0242 0.0289 0.0245 0.0287 0.0249 0.0285 0.0252 0.0283 0.0256 0.028 0.0259 0.0278 0.0262 0.0276 0.0266 0.0273 0.0268 0.0271 0.0273 0.0269 0.0275 0.0266 0.0278 0.0264 0.0282 0.0261 0.0285 0.0258 0.0288 0.0256 0.0291 0.0254 0.0294 0.025 0.0298 0.0248 0.03 0.0246 0.0303 0.0242 0.0307 0.0239 0.0309 0.0237 0.0312 0.0234 0.0316 0.0231 0.0318 0.0228 0.0321 0.0225 0.0324 0.0222 0.0327 0.0219 0.0329 0.0215 0.0333 0.0213 0.0334 0.021 0.0338 0.0206 0.0341 0.0203 0.0343 0.02 0.0345 0.0197 0.0348 0.0193 0.0351 0.019 0.0353 0.0187 0.0356 0.0183 0.0359 0.0179 0.036 0.0177 0.0363 0.0172 0.0365 0.0169 0.0368 0.0166 0.037 0.0162 0.0372 0.0159 0.0375 0.0154 0.0376 0.0151 0.0379 0.0148 0.0381 0.0143 0.0383 0.014 0.0385 0.0137 0.0387 0.0132 0.0389 0.0128 0.0391 0.0125 0.0392 0.012 0.0395 0.0117 0.0396 0.0113 0.0399 0.0109 0.04 0.0105 0.0401 0.0102 0.0403 0.0096 0.0406 0.0093 0.0406 0.0089 0.0408 0.0085 0.041 0.0081 0.0411 0.0076 0.0411 0.0072 0.0415 0.0069 0.0415 0.0064 0.0416 0.0059 0.0418 0.0056 0.0418 0.0051 0.042 0.0047 0.0422 0.0043 0.0422 0.0039 0.0423 0.0034 0.0424 3e-3 0.0425 0.0025 0.0426 0.0022 0.0427 0.0016 0.0428 0.0013 0.0428 8e-4 0.0429 4e-4 0.043-2e-4 0.043-5e-4 0.0431-9e-4 0.0432-0.0014 0.0432-0.0019 0.0432-0.0023 0.0433-0.0028 0.0433-0.0032 0.0433-0.0037 0.0434-0.0041 0.0434-0.0045 0.0434-0.0051 0.0435-0.0054 0.0434-0.0059 0.0435-0.0064 0.0434-0.0068 0.0434-0.0073 0.0434-0.0078 0.0434-0.0082 0.0434-0.0086 0.0433-0.0092 0.0433-0.0095 0.0433-0.01 0.0433-0.0106 0.0432-0.0109 0.0432-0.0114 0.043-0.0119 0.043-0.0123 0.043-0.0128 0.0429-0.0132 0.0428-0.0137 0.0427-0.0141 0.0427-0.0146 0.0426-0.0151 0.0424-0.0156 0.0424-0.0159 0.0422-0.0164 0.0422-0.0169 0.042-0.0173 0.042-0.0178 0.0417-0.0183 0.0418-0.0187 0.0415-0.0191 0.0413-0.0197 0.0413-0.02 0.0411-0.0205 0.041-0.0209 0.0408-0.0214 0.0406-0.0219 0.0405-0.0222 0.0403-0.0227 0.0401-0.0232 0.04-0.0235 0.0396-0.0241 0.0397-0.0245 0.0393-0.0249 0.0391-0.0253 0.039-0.0258 0.0387-0.0262 0.0386-0.0266 0.0383-0.0271 0.0381-0.0274 0.0378-0.0279 0.0376-0.0284 0.0374-0.0287 0.0372-0.0292 0.0369-0.0295 0.0366-0.03 0.0364-0.0304 0.0361-0.0308 0.0358-0.0312 0.0356-0.0316 0.0354-0.032 0.035-0.0324 0.0347-0.0329 0.0345-0.0331 0.0341-0.0336 0.0339-0.034 0.0336-0.0344 0.0332-0.0347 0.0329-0.0351 0.0326-0.0356 0.0324-0.0358 0.032-0.0363 0.0316-0.0366 0.0313-0.037 0.031-0.0373 0.0307-0.0377 0.0302-0.0381 0.03-0.0384 0.0296-0.0388 0.0292-0.039 0.0289-0.0395 0.0285-0.0398 0.0282-0.0401 0.0277-0.0405 0.0274-0.0407 0.027-0.0412 0.0267-0.0414 0.0262-0.0418 0.0258-0.042 0.0254-0.0424 0.0251-0.0427 0.0246-0.043 0.0243-0.0433 0.0238-0.0436 0.0234-0.0438 0.023-0.0442 0.0226-0.0444 0.0222-0.0448 0.0217-0.045 0.0212-0.0452 0.0209-0.0456 0.0204-0.0458 0.02-0.046 0.0195-0.0463 0.0191-0.0466 0.0186-0.0468 0.0182-0.0471 0.0177-0.0473 0.0173-0.0475 0.0168-0.0477 0.0163-0.048 0.0159-0.0481 0.0153-0.0484 0.0149-0.0487 0.0145-0.0488 0.014-0.0489 0.0135-0.0492 0.0129-0.0494 0.0125-0.0496 0.012-0.0498 0.0116-0.0499 0.0109-0.0501 0.0106-0.0503 0.01-0.0504 0.0095-0.0506 0.0091-0.0508 0.0085-0.0508 8e-3 -0.051 0.0075-0.0512 7e-3 -0.0513 0.0065-0.0514 0.0059-0.0515 0.0054-0.0516 5e-3 -0.0518 0.0043-0.0518 4e-3 -0.052 0.0033-0.052 0.0028-0.0522 0.0023-0.0522 0.0018-0.0523 0.0012-0.0523 7e-4 -0.0525 2e-4 -0.0524-4e-4 -0.0526-9e-4 -0.0526-0.0014-0.0526-2e-3 -0.0527-0.0025-0.0528-0.0031-0.0527-0.0036-0.0528-0.0041-0.0527-0.0047-0.0528-0.0052-0.0528-0.0058-0.0528-0.0064-0.0528-0.0068-0.0528-0.0074-0.0527-0.0079-0.0528-0.0086-0.0527-9e-3 -0.0527-0.0096-0.0526-0.0101-0.0526-0.0107-0.0525-0.0113-0.0525-0.0117-0.0524-0.0124-0.0524-0.0129-0.0523-0.0134-0.0522-0.014-0.0521-0.0145-0.052-0.0151-0.0519-0.0156-0.0519-0.0162-0.0517-0.0167-0.0516-0.0172-0.0515-0.0178-0.0513-0.0183-0.0513-0.0189-0.0511-0.0195-0.0509-0.0199-0.0508-0.0205-0.0507-0.0211-0.0505-0.0216-0.0502-0.0221-0.0502-0.0227-0.05-0.0231-0.0498-0.0238-0.0496-0.0243-0.0494-0.0247-0.0492-0.0254-0.049-0.0258-0.0488-0.0264-0.0486-0.0269-0.0483-0.0274-0.0481-0.0279-0.048-0.0285-0.0476-0.029-0.0474-0.0295-0.0472-0.03-0.0469-0.0305-0.0467-0.0311-0.0464-0.0315-0.0461-0.0321-0.0458-0.0325-0.0455-0.0331-0.0453-0.0335-0.045-0.0341-0.0447-0.0345-0.0443-0.035-0.04406-0.0356-0.04372-0.0359-0.04345-0.0365-0.04311-0.037-0.04276-0.0374-0.04242-0.038-0.04208-0.0383-0.04174-0.0389-0.04139-0.0393-0.04105-0.0398-0.04065-0.0402-0.04036-0.0407-0.03989-0.0412-0.03955-0.0415-0.03921-0.0421-0.03879-0.0424-0.03839-0.043-0.03797-0.0433-0.03763-0.0438-0.03715-0.0442-0.03681-0.0446-0.0364-0.0451-0.03592-0.0455-0.03552-0.0458-0.0351-0.0463-0.03469-0.0467-0.03421-0.0471-0.03373-0.0475-0.03332-0.0479-0.03291-0.0483-0.03243-0.0486-0.03195-0.049-0.03148-0.0494-0.03099-0.0498-0.03059-0.0501-0.03003-0.0505-0.02963-0.0509-0.02908-0.0511-0.0286-0.0516-0.02812-0.0519-0.02764-0.0522-0.0271-0.0526-0.02661-0.0529-0.02614-0.0532-0.02559-0.0535-0.02504-0.0539-0.02456-0.0541-0.02402-0.0545-0.02347-0.0547-0.02299-0.0551-0.02244-0.0553-0.02189-0.0556-0.02135-0.0559-0.0208-0.0562-0.02018-0.0564-0.01971-0.0567-0.01916-0.0569-0.01861-0.0572-0.01799-0.0575-0.01745-0.0577-0.0169-0.0579-0.01635-0.0581-0.01574-0.0584-0.01512-0.0586-0.01464-0.0588-0.01396-0.059-0.01341-0.0592-0.01286-0.0594-0.01225-0.0596-0.01163-0.0598-0.01109-0.0599-0.01047-0.0601-0.00985-0.0603-0.00924-0.0604-0.00869-0.0606-0.00807-0.0607-0.00739-0.0609-0.00684-0.061-0.00623-0.0611-0.00561-0.0613-0.00499-0.0614-0.00438-0.0614-0.00376-0.0616-0.00315-0.0617-0.00253-0.0617-0.00192-0.0619-0.00123-0.062-6.2e-4 -0.0619-7e-5 -0.0621 6.2e-4 -0.0622 0.0013-0.0621 0.00185-0.0623 0.00253-0.0623 0.00315-0.0623 0.00376-0.0623 0.00438-0.0623 0.00506-0.0624 0.00568-0.0624 0.0063-0.0623 0.00697-0.0624 0.0076-0.0624 0.00821-0.0623 0.00889-0.0623 0.00952-0.0623 0.01019-0.0622 0.01074-0.0623 0.01143-0.0621 0.01211-0.0621 0.01273-0.062 0.01334-0.062 0.01396-0.0619 0.01464-0.0617 0.01526-0.0617 0.01594-0.0616 0.01656-0.0615 0.01717-0.0614 0.01779-0.0613 0.01847-0.0611 0.01909-0.0611 0.01971-0.0609 0.02039-0.0606 0.021-0.0607 0.02162-0.0604 0.02224-0.0602 0.02292-0.0601 0.02354-0.0599 0.02415-0.0598 0.02477-0.0595 0.02538-0.0594 0.02607-0.0591 0.02662-0.059 0.0273-0.0587 0.02784-0.0584 0.02854-0.0583 0.02908-0.0581 0.02976-0.0577 0.03031-0.0576 0.03099-0.0572 0.03155-0.0571 0.03215-0.0567 0.03278-0.0565 0.03339-0.0562 0.03393-0.0559 0.03462-0.0556 0.03517-0.0554 0.03572-0.055 0.03633-0.0546 0.03695-0.0544 0.03749-0.0541 0.03811-0.0537 0.03866-0.0534 0.03921-0.053 0.03982-0.0527 0.04037-0.0523 0.04098-0.052 0.04153-0.0516 0.04201-0.0512 0.04263-0.0509 0.04317-0.0505 0.04372-0.05 0.04427-0.0497 0.04482-0.0492 0.04536-0.0489 0.04591-0.04842 0.04639-0.04802 0.04694-0.0476 0.04748-0.04718 0.04796-0.04669 0.04852-0.04627 0.04898-0.04585 0.04947-0.04536 0.05005-0.04494 0.0505-0.04438 0.051-0.04403 0.0515-0.04347 0.052-0.04298 0.0524-0.04256 0.0529-0.042 0.0535-0.04151 0.0538-0.04102 0.0543-0.04053 0.0548-0.03997 0.0553-0.03948 0.0557-0.03899 0.0561-0.03843 0.0565-0.03787 0.057-0.03731 0.0575-0.03682 0.0578-0.03626 0.0583-0.0357 0.0587-0.03514 0.0591-0.03458 0.0594-0.03402 0.0599-0.03346 0.0603-0.03283 0.0606-0.03227 0.061-0.03171 0.0614-0.03108 0.0618-0.03052 0.0621-0.02989 0.0625-0.02933 0.0628-0.0287 0.0631-0.02807 0.0636-0.02751 0.0638-0.02688 0.0642-0.02618 0.0645-0.02562 0.0648-0.02499 0.065-0.02436 0.0655-0.02366 0.0657-0.0231 0.066-0.0224 0.0663-0.02177 0.0665-0.02114 0.0668-0.02044 0.0671-0.01981 0.0673-0.01911 0.0676-0.01848 0.0678-0.01785 0.0681-0.01715 0.0683-0.01645 0.0685-0.01575 0.0687-0.01512 0.069-0.01442 0.0691-0.01372 0.0347-0.00658zm0.8497 5.0822-0.7886 0.1928-0.0463-3.9967-0.0372 0.00854-0.056 0.01351-0.0559 0.01407-0.0555 0.01456-0.0554 0.01512-0.0551 0.01568-0.055 0.01631-0.0546 0.01666-0.0546 0.01736-0.054 0.01771-0.0541 0.01841-0.0538 0.0189-0.0535 0.01939-0.0533 0.01988-0.0528 0.02037-0.0528 0.021-0.0525 0.02142-0.0521 0.02191-0.0521 0.02254-0.0514 0.02282-0.0513 0.02352-0.051 0.02387-0.0508 0.0245-0.0503 0.02485-0.0503 0.02541-0.0496 0.02583-0.0495 0.02632-0.0491 0.02681-0.0488 0.02723-0.0485 0.02772-0.0482 0.02821-0.0476 0.02856-0.0477 0.02919-0.0471 0.02951-0.0466 0.0299-0.0464 0.0304-0.0462 0.0309-0.0456 0.0313-0.0453 0.0317-0.0449 0.032-0.0445 0.0325-0.0443 0.033-0.0438 0.0334-0.0433 0.0337-0.0431 0.0342-0.0425 0.0344-0.0422 0.0349-0.0419 0.0354-0.0414 0.0358-0.0409 0.0359-0.0406 0.0365-0.0402 0.0368-0.0397 0.0371-0.0394 0.0376-0.0388 0.0379-0.0385 0.0381-0.0381 0.0387-0.0376 0.0388-0.0371 0.0393-0.0367 0.0395-0.0364 0.04-0.0358 0.0401-0.0353 0.0406-0.035 0.0408-0.0344 0.0411-0.0341 0.0415-0.0335 0.0416-0.0331 0.0421-0.0326 0.0422-0.0322 0.0426-0.0317 0.0429-0.0312 0.0431-0.0308 0.0433-0.0302 0.0436-0.02988 0.044-0.02935 0.0441-0.02881 0.0444-0.02832 0.0446-0.02785 0.0448-0.02744 0.0451-0.02682 0.0452-0.02648 0.0457-0.02586 0.0455-0.02545 0.046-0.02498 0.0462-0.02435 0.0462-0.02395 0.0465-0.0234 0.0467-0.02299 0.047-0.02238 0.0469-0.02196 0.0473-0.02141 0.0473-0.02087 0.0475-0.02046 0.0477-0.01991 0.0479-0.01936 0.0479-0.01889 0.0481-0.01833 0.0483-0.01793 0.0483-0.01731 0.0484-0.01683 0.0486-0.01636 0.0488-0.0158 0.0488-0.01533 0.0488-0.01478 0.0491-0.0143 0.0491-0.01368 0.049-0.01327 0.0493-0.0128 0.0494-0.01218 0.0493-0.0117 0.0494-0.01122 0.0495-0.01067 0.0496-0.01013 0.0496-0.00965 0.0496-0.00916 0.0496-0.00863 0.0498-0.00807 0.0496-0.00759 0.0497-0.00712 0.0498-0.00657 0.0497-0.00602 0.0498-0.00554 0.0496-0.00507 0.0498-0.00451 0.0498-0.00404 0.0497-0.00349 0.0497-0.00301 0.0497-0.00253 0.0495-0.00198 0.0496-0.00151 0.0495-9.6e-4 0.0495-5.4e-4 0.0495 6e-5 0.0493 4.8e-4 0.0493 0.00103 0.0493 0.00151 0.0491 0.00198 0.0491 0.00246 0.049 0.00301 0.0488 0.00349 0.0488 0.00397 0.0488 0.00445 0.0485 0.00492 0.0486 0.00541 0.0483 0.00588 0.0483 0.00637 0.048 0.00691 0.0481 0.00732 0.0478 0.0078 0.0478 0.00828 0.0476 0.00876 0.0474 0.00923 0.0474 0.00965 0.047 0.01019 0.047 0.01061 0.0468 0.01108 0.0467 0.0115 0.0463 0.01204 0.0464 0.01239 0.046 0.01286 0.046 0.01334 0.0457 0.01375 0.0455 0.01423 0.0453 0.01465 0.045 0.01512 0.045 0.01553 0.0447 0.01594 0.0444 0.01635 0.0443 0.01684 0.044 0.01724 0.0438 0.01765 0.0435 0.01799 0.0433 0.01855 0.0431 0.01888 0.0428 0.0193 0.0426 0.0197 0.0423 0.02005 0.042 0.02059 0.0419 0.0208 0.0414 0.02128 0.0413 0.02169 0.041 0.0221 0.0407 0.02244 0.0404 0.02279 0.0402 0.02319 0.0398 0.02361 0.0396 0.02388 0.0393 0.02429 0.0389 0.0247 0.0387 0.02497 0.0383 0.02539 0.0382 0.02565 0.0376 0.02607 0.0375 0.02641 0.0371 0.02668 0.0367 0.0272 0.0366 0.0273 0.0361 0.0277 0.0358 0.0281 0.0355 0.0284 0.0352 0.0286 0.0347 0.0291 0.0345 0.0293 0.0342 0.0295 0.0337 0.0301 0.0335 0.0301 0.0329 0.0305 0.0329 0.0308 0.0323 0.031 0.032 0.0314 0.0316 0.0316 0.0313 0.0319 0.031 0.0321 0.0305 0.0324 0.0302 0.0328 0.0298 0.0329 0.0294 0.0331 0.029 0.0334 0.0287 0.0337 0.0283 0.0339 0.0279 0.0342 0.0275 0.0343 0.0271 0.0346 0.0268 0.0349 0.0264 0.035 0.0259 0.0352 0.0256 0.0355 0.0252 0.0356 0.0248 0.0359 0.0243 0.036 0.024 0.0362 0.0236 0.0365 0.0232 0.0365 0.0227 0.0368 0.0224 0.037 0.022 0.037 0.0214 0.0372 0.0212 0.0376 0.0208 0.0376 0.0203 0.0377 0.0199 0.0378 0.0194 0.0381 0.0191 0.0381 0.0186 0.0383 0.0183 0.0384 0.0179 0.0385 0.0173 0.0387 0.017 0.0388 0.0166 0.0388 0.0162 0.039 0.0157 0.0391 0.0153 0.0392 0.0149 0.0392 0.0145 0.0394 0.0141 0.0394 0.0136 0.0395 0.0132 0.0396 0.0128 0.0397 0.0124 0.0397 0.0119 0.0397 0.0115 0.0399 0.0111 0.0399 0.0107 0.0399 0.0102 0.0399 0.0099 0.04 0.0094 0.04 0.0089 0.0401 0.0086 0.0401 0.0082 0.0401 0.0077 0.0401 0.0073 0.0402 0.0069 0.0401 0.0065 0.0402 0.0061 0.04 0.0056 0.0402 0.0052 0.0401 0.0048 0.0401 0.0044 0.0401 0.0039 0.0401 0.0036 0.04 0.0031 0.04 0.0028 0.04 0.0023 0.0399 0.0019 0.0398 0.0015 0.04 0.0011 0.0397 7e-4 0.0397 2e-4 0.0397-1e-4 0.0395-5e-4 0.0396-1e-3 0.0395-0.0013 0.0393-0.0017 0.0392-0.0021 0.0394-0.0026 0.039-0.0029 0.0391-0.0033 0.0388-0.0037 0.0389-0.0041 0.0387-0.0045 0.0385-0.0049 0.0386-0.0052 0.0383-0.0057 0.0382-6e-3 0.0383-0.0064 0.0379-0.0067 0.0379-0.0072 0.0377-0.0075 0.0377-8e-3 0.0373-0.0082 0.0372-0.0086 0.0373-0.0091 0.037-0.0093 0.0368-0.0097 0.0367-0.0101 0.0364-0.0104 0.0365-0.0109 0.0361-0.0111 0.0359-0.0115 0.036-0.0119 0.0356-0.0121 0.0354-0.0125 0.0352-0.0129 0.0351-0.0132 0.0349-0.0136 0.0347-0.0139 0.0344-0.0142 0.0343-0.0145 0.0341-0.0149 0.0339-0.0152 0.0335-0.0154 0.0336-0.0159 0.0332-0.0161 0.0329-0.0164 0.0328-0.0167 0.0324-0.017 0.0324-0.0174 0.0321-0.0177 0.0318-0.0179 0.0316-0.0182 0.0314-0.0186 0.0311-0.0188 0.0308-0.0191 0.0306-0.0194 0.0303-0.0197 0.0301-0.0199 0.0299-0.0202 0.0296-0.0204 0.0294-0.0208 0.029-0.021 0.0288-0.0212 0.0285-0.0216 0.0283-0.0218 0.0279-0.022 0.0278-0.0223 0.0275-0.0225 0.0271-0.0227 0.0268-0.0229 0.0266-0.0233 0.0263-0.0234 0.026-0.0237 0.0258-0.0239 0.0254-0.0241 0.0251-0.0243 0.0249-0.0246 0.0245-0.0248 0.0243-0.0249 0.024-0.0251 0.0236-0.0254 0.0233-0.0255 0.0231-0.0258 0.0227-0.0259 0.0225-0.0261 0.0221-0.0264 0.0217-0.0264 0.0217-0.0267 0.021-0.0267 0.021-0.0271 0.0206-0.027 0.0202-0.0273 0.0199-0.0275 0.0196-0.0276 0.0193-0.0278 0.019-0.028 0.0186-0.0279 0.0184-0.0283 0.018-0.0282 0.0176-0.0285 0.0174-0.0285 0.017-0.0287 0.0167-0.0289 0.0164-0.0289 0.0161-0.029 0.0157-0.0291 0.0154-0.0294 0.015-0.0292 0.0147-0.0295 0.0145-0.0295 0.0141-0.0297 0.0137-0.0298 0.0134-0.0297 0.0131-0.0299 0.0127-0.0299 0.0125-0.0301 0.012-0.03 0.0119-0.0303 0.0113-0.0301 0.0112-0.0305 0.0107-0.03 0.0104-0.0305 0.0101-0.0306 0.0098-0.0303 0.0094-0.0306 0.0091-0.0304 0.0088-0.0308 0.0084-0.0304 0.0082-0.0309 0.0077-0.0303 0.0075-0.0308 0.0071-0.0308 0.0068-0.0306 0.0064-0.0306 0.0062-0.0309 0.0058-0.0306 0.0054-0.0309 0.0052-0.0305 0.0048-0.0306 0.0046-0.0308 0.0041-0.0307 0.0039-0.0307 0.0035-0.0305 0.0032-0.0304 0.0029-0.0308 0.0026-0.0304 0.0023-0.0305 0.0019-0.0305 0.0016-0.0304 0.0013-0.0303 1e-3 -0.0301 7e-4 -0.0304 4e-4 -0.0303v-0.03l-2e-4 -0.0301-6e-4 -0.0299-9e-4 -0.0299-0.0011-0.0301-0.0015-0.0294-0.0018-0.0301-0.0021-0.0294-0.0024-0.0294-0.0026-0.0297-3e-3 -0.0293-0.0033-0.0291-0.0036-0.0295-0.0038-0.0288-0.0042-0.029-0.0044-0.0287-0.0048-0.0289-5e-3 -0.0287-0.0052-0.0284-0.0056-0.0284-0.0058-0.0284-0.0062-0.028-0.0064-0.0281-0.0067-0.0279-0.0069-0.0276-0.0073-0.0279-0.0074-0.0273-0.0078-0.0276-8e-3 -0.0271-0.0083-0.027-0.0085-0.0269-0.0089-0.0268-0.0091-0.0268-0.0092-0.0263-0.0096-0.0263-0.0098-0.0263-0.0101-0.0259-0.0103-0.026-0.0105-0.0254-0.0109-0.0257-0.0109-0.0253-0.0113-0.025-0.0115-0.0251-0.0117-0.0248-0.012-0.0246-0.0121-0.0245-0.0124-0.0242-0.0127-0.0241-0.0128-0.0239-0.0131-0.0237-0.0133-0.0235-0.0134-0.0233-0.0137-0.0232-0.0139-0.023-0.0141-0.0226-0.0143-0.0225-0.0145-0.0224-0.0148-0.0222-0.0148-0.0218-0.0151-0.0218-0.0153-0.0215-0.0154-0.0212-0.0157-0.0211-0.0158-0.0209-0.016-0.0207-0.0162-0.0204-0.0163-0.0202-0.0165-0.02-0.0167-0.0198-0.0168-0.0195-0.017-0.0194-0.0172-0.0191-0.0173-0.0189-0.0174-0.0187-0.0177-0.0184-0.0178-0.0182-0.0178-0.018-0.0181-0.0177-0.0181-0.0175-0.0185-0.0173-0.0184-0.017-0.0186-0.0169-0.0186-0.0165-0.0189-0.0164-0.019-0.016-0.0191-0.0159-0.0191-0.0156-0.0193-0.0154-0.0195-0.0152-0.0195-0.0149-0.0196-0.0147-0.0198-0.0144-0.0197-0.0141-0.0199-0.014-0.02-0.0137-0.0201-0.0134-0.0203-0.0133-0.0202-0.0129-0.0204-0.0127-0.0204-0.0125-0.0205-0.0122-0.0206-0.0119-0.0207-0.0118-0.0207-0.0115-0.0207-0.0113-0.0209-0.0109-0.0208-0.0108-0.021-0.0105-0.021-0.0103-0.0211-0.0099-0.021-0.0098-0.0212-0.0095-0.0213-0.0093-0.021-9e-3 -0.0214-0.0087-0.0213-0.0086-0.0213-0.0082-0.0213-0.0081-0.0214-0.0078-0.0214-0.0075-0.0214-0.0074-0.0214-7e-3 -0.0215-0.0068-0.0214-0.0066-0.0214-0.0063-0.0216-0.0061-0.0214-0.0058-0.0214-0.0056-0.0215-0.0054-0.0215-0.0051-0.0214-0.0049-0.0215-0.0046-0.0214-0.0044-0.0214-0.0042-0.0213-0.0039-0.0215-0.0038-0.0212-0.0034-0.0215-0.0032-0.0211-3e-3 -0.0214-0.0028-0.0212-0.0025-0.0211-0.0024-0.0212-2e-3 -0.0211-0.0019-0.021-0.0016-0.021-0.0014-0.021-0.0012-0.021-9e-4 -0.0207-7e-4 -0.0209-5e-4 -0.0207-3e-4 -0.0207-1e-4 -0.0206 2e-4 -0.0206 4e-4 -0.0205 5e-4 -0.0204 9e-4 -0.0203 1e-3 -0.0204 0.0012-0.0201 0.0014-0.0201 0.0016-0.0201 0.0019-0.0199 2e-3 -0.02 0.0023-0.0197 0.0024-0.0197 0.0027-0.0195 0.0029-0.0196 3e-3 -0.0194 0.0033-0.0193 0.0034-0.0191 0.0036-0.0192 0.0039-0.019 4e-3 -0.019 0.0042-0.0187 0.0044z" clip-rule="evenodd" fill="url(#a)" fill-rule="evenodd"/>
<defs>
<linearGradient id="a" x1="34" x2="9.0497" y1="19.5" y2="20.614" gradientUnits="userSpaceOnUse">
<stop stop-color="#f00" offset="0"/>
<stop stop-color="#7A1818" offset="1"/>
</linearGradient>
</defs>
</svg>
